HIERARCHY
ROOT Hips
{
	OFFSET 0.000000 0.000000 0.000000 
	CHANNELS 6 Xposition Yposition Zposition Yrotation Zrotation Xrotation 
	JOINT Lumbar
	{
		OFFSET 0.000000 0.000000 0.000000 
		CHANNELS 3 Zrotation Xrotation Yrotation
		JOINT Neck
		{
			OFFSET 0.000000 0.445665 0.000000 
			CHANNELS 3 Zrotation Xrotation Yrotation
			End Site
			{
				OFFSET 0.000000 0.227535 0.000000 
			}
		}
		JOINT RightShoulder
		{
			OFFSET 0.019635 0.377685 0.194865 
			CHANNELS 3 Zrotation Xrotation Yrotation
			JOINT RightElbow
			{
				OFFSET 0.000000 -0.243375 0.000000 
				CHANNELS 2 Zrotation Yrotation
				JOINT RightWrist
				{
					OFFSET 0.000000 -0.264825 0.000000 
					CHANNELS 2 Zrotation Xrotation
					End Site
					{
						OFFSET 0.006600 -0.176220 0.000990 
					}
				}
			}
		}
		JOINT LeftShoulder
		{
			OFFSET 0.019635 0.377685 -0.194865 
			CHANNELS 3 Zrotation Xrotation Yrotation
			JOINT LeftElbow
			{
				OFFSET 0.000000 -0.243375 0.000000 
				CHANNELS 2 Zrotation Yrotation
				JOINT LeftWrist
				{
					OFFSET 0.000000 -0.264825 0.000000 
					CHANNELS 2 Zrotation Xrotation
					End Site
					{
						OFFSET 0.006600 -0.176220 -0.000990 
					}
				}
			}
		}
	}
	JOINT RightHip
	{
		OFFSET 0.052140 -0.069960 0.075570 
		CHANNELS 3 Zrotation Xrotation Yrotation
		JOINT RightKnee
		{
			OFFSET 0.000000 -0.402270 0.000000 
			CHANNELS 1 Zrotation
			JOINT RightAnkle
			{
				OFFSET 0.000000 -0.404085 0.000000 
				CHANNELS 3 Zrotation Xrotation Yrotation
				End Site
				{
					OFFSET 0.204105 -0.089430 0.008415 
				}
			}
		}
	}
	JOINT LeftHip
	{
		OFFSET 0.052140 -0.069960 -0.075570 
		CHANNELS 3 Zrotation Xrotation Yrotation
		JOINT LeftKnee
		{
			OFFSET 0.000000 -0.402270 0.000000 
			CHANNELS 1 Zrotation
			JOINT LeftAnkle
			{
				OFFSET 0.000000 -0.404085 0.000000 
				CHANNELS 3 Zrotation Xrotation Yrotation
				End Site
				{
					OFFSET 0.204105 -0.089430 -0.008415 
				}
			}
		}
	}
}
MOTION
Frames: 28
Frame Time: 0.02
-0.47214 -0.02363 0.0077 254.07076 -43.28059 0.50705 25.67025 13.9152 -2.01014 5.16154 3.46858 -0.83064 29.5576 -25.14891 -21.04692 26.83531 81.01831 -6.77448 4.99629 13.49729 9.11871 -56.37288 80.02547 -78.6413 -5.25512 0.31093 67.49339 -7.30882 -4.34637 -41.35201 -6.89772 -3.24883 -2.34619 66.39914 6.47918 3.69374 -44.3802 -8.42087 4.91971 3.35143
-0.46498 -0.02313 0.00872 254.33217 -43.06135 0.93287 25.66062 13.92679 -2.32936 4.69056 3.42039 -0.83064 29.27621 -24.34831 -20.6149 27.24938 80.89559 -7.03288 4.81103 13.07503 9.04159 -56.09078 79.65746 -78.47139 -5.32009 0.59017 67.32632 -8.19028 -4.27007 -41.31367 -6.89688 -3.18516 -2.31142 65.83462 7.12419 3.51355 -44.79226 -8.34356 4.8278 3.29468
-0.45735 -0.022 0.01033 254.81502 -42.77263 1.47159 25.74147 13.82634 -2.86407 4.10539 3.41787 -0.83064 28.62395 -23.3472 -19.93477 27.90705 80.79068 -7.1133 4.54802 12.85593 8.98671 -56.14255 79.05357 -78.5496 -5.36677 0.45596 66.92556 -9.15563 -4.08736 -41.05633 -6.91218 -3.1534 -2.29503 64.88682 7.87756 3.10013 -44.87941 -8.18361 4.58263 3.14781
-0.44986 -0.02118 0.01167 255.18172 -42.51769 1.94579 25.78142 13.77433 -3.28669 3.58485 3.39651 -0.83064 28.1318 -22.43646 -19.34701 28.45189 80.67765 -7.26315 4.32799 12.55518 8.94355 -56.06247 78.58902 -78.40796 -5.4516 0.50024 66.63454 -10.06959 -3.92687 -40.8958 -6.92056 -3.10968 -2.2715 64.10871 8.58113 2.76394 -45.07982 -8.07286 4.42071 3.05022
-0.44265 -0.02026 0.01301 255.6041 -42.25019 2.47345 25.81682 13.73302 -3.76794 3.00457 3.3687 -0.83064 27.67818 -21.5179 -18.84226 29.00879 80.56267 -7.46458 4.08134 12.19828 8.80916 -55.88414 77.99503 -78.67633 -5.41889 0.60323 66.33326 -11.04543 -3.87875 -40.75884 -6.92634 -3.05259 -2.24132 63.34603 9.29745 2.56114 -45.43162 -7.91676 4.2045 2.91946
-0.43474 -0.01941 0.0145 255.96743 -41.99425 2.91614 25.88552 13.64303 -4.17843 2.52419 3.36466 -0.83064 27.05468 -20.57255 -18.10827 29.59758 80.45731 -7.51525 3.86508 12.00613 8.86546 -55.98683 77.60927 -78.19385 -5.61023 0.48509 65.99743 -11.91096 -3.57257 -40.51785 -6.94178 -3.03165 -2.22984 62.46428 10.01017 2.0231 -45.3906 -7.83267 4.06281 2.83501
-0.42515 -0.01878 0.01626 256.10689 -41.77879 3.1126 26.01171 13.44203 -4.34387 2.34402 3.41392 -0.83064 26.05825 -19.59865 -16.78536 30.21069 80.36737 -7.19066 3.8083 12.27921 9.49652 -56.8903 77.89346 -75.22295 -6.59184 -0.22693 65.60549 -12.43981 -2.55332 -40.02151 -6.97909 -3.10651 -2.26684 61.31506 10.67041 0.5865 -44.32136 -7.98457 4.17605 2.90803
-0.41484 -0.01828 0.01817 256.18204 -41.57897 3.21699 26.17051 13.19649 -4.43029 2.26972 3.48559 -0.83064 24.90264 -18.6071 -15.24443 30.84784 80.28792 -6.7204 3.77553 12.70343 10.3099 -58.05027 78.38852 -71.55005 -7.77235 -1.1367 65.18874 -12.85573 -1.28152 -39.43001 -7.026 -3.21651 -2.32209 60.06635 11.32396 -1.17442 -42.87292 -8.20829 4.36696 3.02911
-0.40478 -0.0178 0.02002 256.29205 -41.37833 3.35383 26.32332 12.97398 -4.55104 2.15019 3.54741 -0.83064 23.81555 -17.62732 -13.81339 31.47604 80.20837 -6.31808 3.69287 13.01992 11.0044 -59.02426 78.76149 -68.43915 -8.74935 -1.90255 64.79484 -13.33018 -0.14316 -38.89432 -7.06896 -3.30815 -2.36822 58.88327 11.99021 -2.77135 -41.60966 -8.38777 4.51452 3.12315
-0.39504 -0.01696 0.02185 256.385 -41.15004 3.53505 26.44368 12.73609 -4.68588 2.01474 3.60908 -0.83064 22.73027 -16.62376 -12.3247 32.10405 80.1099 -5.90255 3.76641 13.50309 11.84912 -60.29558 79.23489 -64.33297 -10.19074 -2.9046 64.34623 -13.778 1.07421 -38.29838 -7.11005 -3.4103 -2.41809 57.5965 12.62229 -4.4526 -40.27347 -8.61352 4.69129 3.23633
-0.38444 -0.01692 0.02376 256.49638 -40.98227 3.59943 26.63604 12.52074 -4.76991 1.9387 3.67622 -0.83064 21.61004 -15.66913 -10.91172 32.73547 80.05286 -5.48187 3.52841 13.67859 12.42721 -61.01295 79.55507 -62.10224 -10.72793 -3.46378 64.00596 -14.25243 2.1899 -37.8079 -7.15795 -3.49931 -2.46471 56.51224 13.31921 -6.02429 -39.01275 -8.76084 4.827 3.32183
-0.37187 -0.01895 0.02584 256.66517 -40.99282 3.37256 27.037 12.38208 -4.73027 2.00486 3.74868 -0.83064 20.41838 -14.848 -9.72687 33.36512 80.10971 -5.08685 2.363 12.91398 12.1962 -60.06232 79.37688 -65.46133 -8.58464 -2.68632 63.9952 -14.83537 2.92488 -37.6343 -7.2154 -3.53633 -2.49412 55.97077 14.22325 -7.28153 -37.97646 -8.67572 4.83662 3.3228
-0.35842 -0.02179 0.02799 256.85549 -41.06121 3.02923 27.50522 12.2674 -4.64118 2.12686 3.8263 -0.83064 19.20151 -14.07925 -8.63351 33.99717 80.20745 -4.69208 0.89474 11.84364 11.69547 -58.55766 79.04249 -70.68721 -5.54901 -1.46618 64.09076 -15.44734 3.55459 -37.57046 -7.28077 -3.56 -2.52021 55.64697 15.18662 -8.40335 -37.04702 -8.50931 4.80184 3.29402
-0.34523 -0.02433 0.03009 257.04077 -41.09373 2.73263 27.93092 12.14019 -4.57599 2.22143 3.90431 -0.83064 18.00709 -13.29103 -7.52186 34.63026 80.285 -4.29489 -0.39389 10.94728 11.33701 -57.3549 78.79673 -74.89893 -3.01159 -0.48999 64.12311 -16.04046 4.25805 -37.45623 -7.34673 -3.59437 -2.55025 55.25108 16.10575 -9.54219 -36.11822 -8.37932 4.78402 3.27688
-0.33261 -0.0266 0.03227 257.20344 -41.16754 2.45834 28.40949 12.01889 -4.50403 2.32883 3.97213 -0.83064 16.76037 -12.48227 -6.30365 35.2551 80.36959 -3.90092 -1.85772 9.90798 10.90291 -55.95059 78.485 -79.78192 -0.09314 0.65815 64.21811 -16.65278 4.86445 -37.34184 -7.39462 -3.61076 -2.57079 54.73459 17.10033 -10.88155 -34.96061 -8.25379 4.78235 3.26926
-0.31859 -0.02961 0.03429 257.41974 -41.16848 2.11198 28.79193 11.89077 -4.43305 2.42069 4.06139 -0.83064 15.61881 -11.73084 -5.33255 35.89766 80.44923 -3.50385 -3.03052 9.09231 10.55849 -54.83005 78.26919 -83.72462 2.25038 1.55774 64.20721 -17.23447 5.6404 -37.25368 -7.48281 -3.66053 -2.60991 54.52687 17.9486 -11.76548 -34.31955 -8.09901 4.73555 3.23419
-0.30097 -0.03451 0.03588 257.77358 -40.958 1.58797 28.90581 11.74505 -4.39774 2.4615 4.21471 -0.83064 14.77513 -11.10909 -5.01767 36.58409 80.50387 -3.08578 -3.31072 8.96338 10.53994 -54.63586 78.37004 -84.57018 2.75171 1.64821 63.88765 -17.71453 6.94463 -37.2256 -7.67271 -3.80924 -2.70246 55.07877 18.40634 -11.43439 -34.9948 -7.88105 4.57472 3.12992
-0.28197 -0.04011 0.03728 258.18189 -40.67169 0.99733 28.91827 11.59056 -4.36185 2.483 4.3882 -0.83064 14.0393 -10.54591 -4.94957 37.28805 80.55228 -2.6681 -3.29021 9.06999 10.61822 -54.74348 78.56915 -84.41664 2.6509 1.47686 63.4566 -18.16388 8.41456 -37.21882 -7.90441 -3.99117 -2.8135 55.94016 18.70951 -10.64639 -36.20059 -7.63671 4.36979 2.999
-0.26356 -0.04538 0.03875 258.56904 -40.41704 0.44217 28.96785 11.43566 -4.31263 2.50941 4.54829 -0.83064 13.25334 -9.96686 -4.77281 37.98794 80.60442 -2.2585 -3.41755 9.07209 10.64266 -54.70708 78.71342 -84.753 2.85119 1.4361 63.06977 -18.63604 9.78597 -37.19214 -8.12173 -4.15539 -2.91508 56.68861 19.0652 -10.05949 -37.22463 -7.40542 4.18477 2.88043
-0.24524 -0.05077 0.04032 258.94186 -40.17497 -0.13952 29.0564 11.3001 -4.31803 2.55488 4.72636 -0.83064 12.46876 -9.34576 -4.58671 38.67522 80.65436 -1.81203 -3.50925 9.05434 10.69745 -54.68129 78.89568 -85.00312 2.96867 1.36228 62.71205 -19.07713 11.25555 -37.2087 -8.31925 -4.33016 -3.02093 57.3346 19.49809 -9.49499 -38.0149 -7.16619 3.99841 2.75963
-0.22646 -0.05604 0.04163 259.35703 -39.88952 -0.67968 29.04042 11.12192 -4.21143 2.5544 4.87181 -0.83065 11.7102 -8.82357 -4.47453 39.38822 80.70666 -1.44485 -3.59849 9.13608 10.71788 -54.71126 79.02377 -85.17083 3.10144 1.28866 62.26812 -19.56856 12.55673 -37.14345 -8.56857 -4.49108 -3.12244 58.25591 19.73232 -8.77798 -39.39998 -6.93911 3.80542 2.63781
-0.2064 -0.06111 0.04225 259.8773 -39.489 -1.09296 28.74619 10.82791 -3.78591 2.43969 4.92143 -0.83065 10.97283 -8.5765 -4.53186 40.20847 80.76846 -1.27602 -3.76465 9.45146 10.60015 -54.83233 78.98211 -85.35144 3.44218 1.28396 61.59318 -20.26441 13.38956 -36.80662 -8.94328 -4.60466 -3.20618 59.93508 19.45812 -7.74393 -42.44003 -6.74525 3.60079 2.51723
-0.18599 -0.06598 0.04262 260.43786 -39.04971 -1.46069 28.35257 10.49141 -3.25023 2.27791 4.93779 -0.83066 10.26279 -8.42368 -4.6499 41.04674 80.83234 -1.19044 -3.93544 9.85738 10.44938 -54.99987 78.8826 -85.4749 3.81138 1.28548 60.83847 -21.00124 14.03914 -36.39328 -9.36915 -4.70326 -3.28502 61.86511 18.98836 -6.57461 -46.03209 -6.56625 3.39201 2.39717
-0.16595 -0.07074 0.04311 260.97904 -38.63697 -1.84612 28.01358 10.17426 -2.77109 2.13184 4.96973 -0.83066 9.55605 -8.21672 -4.72273 41.84979 80.8941 -1.08071 -4.09576 10.2124 10.32808 -55.1416 78.80781 -85.61788 4.15072 1.27913 60.13319 -21.68097 14.75078 -36.04157 -9.77754 -4.8096 -3.36712 63.63203 18.60659 -5.47243 -49.27912 -6.38524 3.18798 2.27858
-0.14497 -0.07635 0.04358 261.52702 -38.18399 -2.24702 27.63127 9.85605 -2.26272 2.00801 4.99988 -0.83067 8.78591 -8.05942 -4.87829 42.76631 80.96068 -0.9148 -4.2805 10.61622 10.14945 -55.31304 78.74296 -85.75481 4.54025 1.28523 59.36894 -22.52131 15.56434 -35.57921 -10.16663 -4.91374 -3.44608 65.62024 18.22412 -4.32879 -52.94721 -6.183 2.97015 2.15173
-0.12589 -0.08014 0.04403 262.06926 -37.8065 -2.60351 27.31676 9.5308 -1.79141 1.82833 5.02629 -0.83067 8.15392 -7.82047 -4.87311 43.45213 81.01775 -0.88368 -4.4201 10.93735 10.08053 -55.43009 78.64245 -85.90305 4.84078 1.27019 58.70941 -23.03826 16.11166 -35.32643 -10.60303 -5.01776 -3.52946 67.19927 17.79751 -3.24724 -55.85627 -6.02912 2.78085 2.04268
-0.112 -0.07908 0.04448 262.58856 -37.64894 -2.85188 27.21625 9.19019 -1.42982 1.4938 5.04502 -0.83067 7.88791 -7.33219 -4.40432 43.48245 81.0483 -1.22158 -4.42804 11.003 10.32783 -55.38234 78.45734 -86.10352 4.88115 1.19589 58.36473 -22.64309 16.03905 -35.69121 -11.19598 -5.13124 -3.63234 67.61789 17.30747 -2.35631 -56.58429 -6.00333 2.67011 1.98199
-0.10007 -0.07618 0.04492 263.09951 -37.56911 -3.05599 27.18801 8.84511 -1.11317 1.10711 5.06244 -0.83067 7.7612 -6.75903 -3.77116 43.28239 81.0692 -1.68894 -4.39267 10.98201 10.68511 -55.27753 78.23818 -86.32133 4.8353 1.10109 58.12802 -21.92273 15.69117 -36.26533 -11.82741 -5.24384 -3.73863 67.60915 16.77875 -1.53729 -56.51766 -6.02617 2.5887 1.9395
